HIERARCHY
ROOT wrist
{
	OFFSET 0.00 0.00 0.00
	CHANNELS 6 Xposition Yposition Zposition Xrotation Yrotation Zrotation
	JOINT riHand
	{
		OFFSET -0.04598 0.37556 -0.10882
		CHANNELS 3 Xrotation Yrotation Zrotation
		JOINT RiIndexMP
		{
			OFFSET -1.68547 2.46874 -0.24056
			CHANNELS 2 Zrotation Yrotation
			JOINT RiIndexPIP
			{
				OFFSET -0.10277 1.47086 -0.45732
				CHANNELS 1 Yrotation
				JOINT RiIndexDIP
				{
					OFFSET -0.08662 0.93830 -0.07738
					CHANNELS 1 Yrotation
					End Site
					{
						OFFSET -0.08448 0.91520 -0.07547
					}
				}
			}
		}
		JOINT RiMiddleMP
		{
			OFFSET -0.85407 2.65552 -0.00744
			CHANNELS 2 Zrotation Yrotation
			JOINT RiMiddlePIP
			{
				OFFSET -0.20884 1.70284 -0.28882
				CHANNELS 1 Yrotation
				JOINT RiMiddleDIP
				{
					OFFSET -0.14094 1.16203 -0.24202
					CHANNELS 1 Yrotation
					End Site
					{
						OFFSET -0.12231 1.00703 -0.20494
					}
				}
			}
		}
		JOINT RiRingMP
		{
			OFFSET 0.20418 2.54564 0.23484
			CHANNELS 2 Zrotation Yrotation
			JOINT RiRingPIP
			{
				OFFSET -0.04564 1.64840 -0.33154
				CHANNELS 1 Yrotation
				JOINT RiRingDIP
				{
					OFFSET -0.03124 1.12660 -0.26248
					CHANNELS 1 Yrotation
					End Site
					{
						OFFSET -0.02557 0.92313 -0.19419
					}
				}
			}
		}
		JOINT RiPinkyMP
		{
			OFFSET 0.88895 2.32064 0.25776
			CHANNELS 2 Zrotation Yrotation
			JOINT RiPinkyPIP
			{
				OFFSET 0.43367 1.29723 -0.28031
				CHANNELS 1 Yrotation
				JOINT RiPinkyDIP
				{
					OFFSET 0.21745 0.64768 -0.13568
					CHANNELS 1 Yrotation
					End Site
					{
						OFFSET 0.25134 0.74860 -0.15683
					}
				}
			}
		}
		JOINT RiThumbCMC
		{
			OFFSET -1.27353 -0.34685 -0.51300
			CHANNELS 3 Xrotation Yrotation Zrotation
			JOINT RiThumbMP
			{
				OFFSET -0.97380 1.27673 -0.24634
				CHANNELS 1 Zrotation
				JOINT RiThumbIP
				{
					OFFSET -0.70093 0.83226 -0.09447
					CHANNELS 1 Zrotation
					End Site
					{
						OFFSET -0.55464 0.68943 -0.10425
					}
				}
			}
		}
	}
}
MOTION
Frames: 33
Frame Time: 0.008333
 0.8445 48.5120 -2.1045 -129.5643 -21.4033 -176.0959 -30.9723 2.1101 -18.2980 6.4990 1.7026 -0.5898 -0.7400 -4.6998 2.2173 -1.5172 -0.2311 -7.7981 -0.1007 -0.1203 -0.0298 1.7151 -0.9955 0.1627 1.4206 15.7724 -19.2373 25.2219 -4.8637 15.1992
 0.8438 48.5127 -2.1049 -129.6454 -21.4240 -176.1479 -31.1020 2.0863 -18.3072 6.4925 1.7036 -0.5565 -0.7589 -4.6989 2.2315 -1.5214 -0.2440 -7.7806 -0.0909 -0.1205 -0.0293 1.7454 -1.0009 0.1403 1.4417 15.9401 -19.3114 25.2293 -4.7338 15.0516
 0.8430 48.5116 -2.1052 -129.6720 -21.4248 -176.1758 -31.1392 2.0476 -18.2827 6.4431 1.6982 -0.5189 -0.7943 -4.7405 2.2383 -1.5285 -0.2472 -7.7976 -0.0953 -0.1198 -0.0292 1.7309 -0.9851 0.1274 1.4361 16.0237 -19.3256 25.2525 -4.7003 14.9955
 0.8451 48.5123 -2.1046 -129.7586 -21.4537 -176.1977 -31.3110 1.9916 -18.4118 6.6136 1.7218 -0.5067 -0.7920 -4.6406 2.2647 -1.4860 -0.3610 -7.6746 -0.0786 -0.1204 -0.0259 1.8579 -0.9649 0.0455 1.5164 16.1500 -19.2293 25.4009 -4.7957 15.1091
 0.8440 48.5109 -2.1045 -129.7632 -21.4376 -176.2175 -31.3208 2.0006 -18.3748 6.6141 1.7189 -0.5315 -0.7716 -4.6544 2.2631 -1.4861 -0.3520 -7.6662 -0.0831 -0.1447 0.0277 1.8075 -0.9786 0.0975 1.5352 16.1998 -19.2415 25.4296 -4.7855 15.0517
 0.8474 48.5099 -2.1034 -129.7355 -21.4698 -176.1778 -31.3143 1.9207 -18.5215 6.5791 1.7070 -0.5335 -0.8391 -4.4897 2.2608 -1.4830 -0.3847 -7.5494 -0.0810 -0.1452 0.0293 1.9480 -0.9548 0.1246 1.4345 16.4453 -19.1869 25.6900 -4.8845 15.1628
 0.8465 48.5079 -2.1035 -129.7197 -21.4580 -176.1851 -31.3179 1.8634 -18.4728 6.5575 1.6989 -0.5801 -0.7920 -4.4957 2.2617 -1.5304 -0.2799 -7.5929 -0.0827 -0.1455 0.0286 1.9292 -0.9431 0.1666 1.3680 15.7918 -18.7481 25.4473 -5.2339 15.4542
 0.8478 48.5061 -2.1035 -129.6768 -21.4473 -176.1589 -31.2513 1.8841 -18.5531 6.6576 1.7211 -0.5560 -0.7883 -4.3625 2.2457 -1.5277 -0.2846 -7.4608 -0.0786 -0.1479 0.0162 2.0429 -0.9313 0.1974 1.3546 15.8315 -18.6671 25.6176 -5.4060 15.5466
 0.8482 48.5047 -2.1053 -129.6531 -21.4477 -176.1428 -31.2911 1.9362 -18.5208 6.5872 1.7049 -0.5683 -0.7746 -4.5474 2.1401 -1.3055 -0.4509 -7.5381 -0.0464 -0.1510 0.0147 1.9658 -1.0172 0.2176 1.3775 15.8103 -18.7653 25.4738 -5.2721 15.4768
 0.8483 48.5043 -2.1060 -129.6728 -21.4765 -176.1344 -31.3344 1.9430 -18.5319 6.5679 1.6951 -0.5950 -0.7745 -4.5574 2.1605 -1.3219 -0.4400 -7.5971 -0.0384 -0.1534 0.0365 1.9353 -1.0546 0.2348 1.3761 15.8309 -18.8281 25.4293 -5.2245 15.4292
 0.8489 48.5035 -2.1065 -129.6981 -21.4748 -176.1476 -31.3211 1.8986 -18.5195 6.5587 1.6955 -0.5944 -0.7732 -4.5041 2.2758 -1.5192 -0.2932 -7.6468 -0.0561 -0.1528 0.0076 1.9008 -1.0184 0.2210 1.3608 15.8033 -18.7775 25.4262 -5.2619 15.4412
 0.8490 48.5026 -2.1067 -129.6839 -21.4751 -176.1406 -31.2821 1.9427 -18.5226 6.5495 1.6946 -0.5868 -0.7843 -4.5200 2.2788 -1.5152 -0.3008 -7.6043 -0.0482 -0.1518 0.0157 1.9028 -1.0375 0.2223 1.3607 15.8165 -18.8626 25.4372 -5.2436 15.4513
 0.8491 48.5017 -2.1071 -129.7071 -21.4355 -176.1660 -31.2514 1.9527 -18.5051 6.5694 1.7033 -0.5616 -0.7921 -4.4922 2.2708 -1.5293 -0.2600 -7.5974 -0.0608 -0.1479 0.0273 1.9101 -1.0003 0.1440 1.4425 15.8028 -18.8206 25.4946 -5.3092 15.4723
 0.8491 48.4981 -2.1094 -129.5066 -21.4216 -176.0735 -30.9360 1.9034 -18.5794 6.6830 1.7277 -0.5260 -0.8439 -4.3474 2.2194 -1.5156 -0.2845 -7.4753 -0.0847 -0.1453 0.0256 2.0697 -0.9175 0.1129 1.4687 15.7362 -18.6143 25.5699 -5.4462 15.5267
 0.8499 48.4989 -2.1098 -129.5466 -21.4199 -176.0639 -30.9970 1.9455 -18.5706 6.6351 1.7152 -0.5452 -0.8393 -4.3865 2.2393 -1.5290 -0.2852 -7.5439 -0.0736 -0.1471 0.0266 1.9920 -0.9449 0.0033 1.6279 15.7380 -18.7166 25.4704 -5.3409 15.4269
 0.8489 48.5035 -2.1089 -129.7771 -21.4637 -176.2021 -31.3243 1.9435 -18.5558 6.6405 1.7118 -0.5385 -0.8612 -4.3851 2.2714 -1.5304 -0.2975 -7.5135 -0.0519 -0.1541 0.0375 2.0245 -0.9662 -0.0231 1.6311 15.8210 -18.8817 25.5007 -5.2451 15.4389
 0.8493 48.4984 -2.1114 -129.5104 -21.3953 -176.0787 -30.8348 2.1674 -18.4405 6.4087 1.6898 -0.5311 -0.8373 -4.5547 2.2130 -1.4767 -0.3607 -7.6648 -0.0831 -0.1496 0.0304 1.8177 -1.0217 0.0478 1.6201 15.6564 -19.1178 25.3490 -5.2104 15.4731
 0.8474 48.4993 -2.1128 -129.5488 -21.4136 -176.1049 -30.9265 2.1272 -18.4911 6.5348 1.7079 -0.5075 -0.8822 -4.5016 2.2267 -1.4807 -0.3567 -7.5614 -0.0691 -0.1529 0.0348 1.9643 -1.0031 0.0327 1.6469 15.7013 -19.0297 25.4086 -5.1876 15.4269
 0.8486 48.5034 -2.1103 -129.7370 -21.4268 -176.1934 -31.1911 2.1308 -18.5099 6.7172 1.7329 -0.5233 -0.8247 -4.4924 2.2622 -1.4967 -0.3547 -7.4878 -0.0378 -0.1445 0.0108 1.9453 -1.0362 0.1444 1.5516 16.3717 -19.4105 25.6611 -4.7843 15.1196
 0.8472 48.5006 -2.1133 -129.5927 -21.3952 -176.1415 -30.9151 2.2228 -18.4080 6.5776 1.7229 -0.5189 -0.8089 -4.5999 2.2136 -1.4665 -0.3716 -7.5719 -0.0620 -0.1430 0.0098 1.8623 -1.0205 0.0368 1.7207 16.3409 -19.5512 25.5926 -4.7156 14.9666
 0.8499 48.5014 -2.1117 -129.5407 -21.4262 -176.0701 -30.9110 2.0782 -18.5243 6.6648 1.7284 -0.5229 -0.8163 -4.5244 2.2289 -1.5200 -0.2766 -7.5211 -0.0594 -0.1444 0.0114 1.8853 -1.0080 0.1524 1.5560 15.9333 -19.1164 25.5056 -4.9855 15.2561
 0.8482 48.5022 -2.1137 -129.5687 -21.4125 -176.0958 -30.9160 2.1365 -18.4297 6.5507 1.7148 -0.5277 -0.8080 -4.6186 2.2127 -1.4945 -0.3010 -7.6585 -0.0642 -0.1209 -0.0391 1.8030 -1.0260 0.1499 1.5958 16.3345 -19.4600 25.5303 -4.7579 15.0189
 0.8484 48.5029 -2.1144 -129.5616 -21.4096 -176.0736 -30.9040 2.1252 -18.4753 6.5873 1.7212 -0.5220 -0.8184 -4.5801 2.2093 -1.5024 -0.2895 -7.6115 -0.0678 -0.1189 -0.0418 1.8842 -1.0015 0.1245 1.5326 16.3325 -19.4316 25.5558 -4.7985 15.0496
 0.8465 48.5013 -2.1148 -129.5011 -21.3406 -176.0930 -30.8082 2.1286 -18.3894 6.5979 1.7234 -0.5187 -0.8297 -4.5822 2.2082 -1.4640 -0.3855 -7.6184 -0.0739 -0.1194 -0.0418 1.9083 -0.9740 0.0890 1.5716 15.8047 -19.0288 25.3576 -5.1562 15.2524
 0.8465 48.5029 -2.1151 -129.4884 -21.3724 -176.0791 -30.8143 2.0750 -18.4343 6.6094 1.7239 -0.5181 -0.8374 -4.5723 2.2111 -1.4593 -0.4064 -7.6081 -0.0749 -0.1191 -0.0425 1.9298 -0.9644 0.0902 1.5687 15.8910 -19.1148 25.3448 -5.0691 15.2639
 0.8472 48.5042 -2.1135 -129.5262 -21.3418 -176.1096 -30.8696 1.9917 -18.4440 6.7092 1.7343 -0.5283 -0.8481 -4.4568 2.2160 -1.5102 -0.3084 -7.5622 -0.0816 -0.1188 -0.0415 1.9669 -0.9142 0.0580 1.5751 15.9310 -18.8780 25.4697 -5.3056 15.3953
 0.8468 48.5041 -2.1148 -129.4960 -21.3529 -176.0716 -30.7665 2.1433 -18.4221 6.5545 1.7195 -0.5161 -0.8204 -4.6122 2.1969 -1.4633 -0.3950 -7.6575 -0.0827 -0.1199 -0.0417 1.8816 -0.9746 0.0778 1.5961 16.1490 -19.4303 25.4599 -4.7908 14.9993
 0.8445 48.5057 -2.1154 -129.5226 -21.3899 -176.0863 -30.8463 2.0502 -18.4285 6.5683 1.7172 -0.5276 -0.8213 -4.6069 2.2106 -1.4648 -0.4072 -7.6556 -0.0865 -0.1167 -0.0446 1.9007 -0.9454 0.0388 1.5777 15.8609 -19.1274 25.3113 -5.1367 15.2770
 0.8456 48.5110 -2.1150 -129.7379 -21.4362 -176.1639 -31.2255 1.7946 -18.5801 6.7937 1.7365 -0.5441 -0.8306 -4.3580 2.2533 -1.5137 -0.4051 -7.4957 -0.0778 -0.1150 -0.0444 2.0302 -0.8389 -0.0968 1.6691 15.9827 -18.7618 25.4521 -5.2720 15.3816
 0.8441 48.5061 -2.1156 -129.5510 -21.3270 -176.1016 -30.8158 2.1004 -18.3796 6.5081 1.7100 -0.5321 -0.8047 -4.5845 2.2018 -1.4867 -0.4037 -7.7266 -0.1005 -0.1155 -0.0448 1.8292 -0.9149 -0.0471 1.6449 15.4032 -19.0303 25.1376 -5.1482 15.3601
 0.8450 48.5066 -2.1143 -129.5478 -21.3306 -176.0797 -30.8465 1.9757 -18.4976 6.6605 1.7238 -0.5647 -0.7564 -4.4204 2.2176 -1.5082 -0.2467 -7.6084 -0.0986 -0.1155 -0.0438 1.9655 -0.8649 -0.0320 1.6066 15.7705 -18.8697 25.3862 -5.1740 15.3797
 0.8440 48.5074 -2.1147 -129.5464 -21.3633 -176.0729 -30.8758 1.9626 -18.5516 6.7000 1.7271 -0.5664 -0.7616 -4.4355 2.1751 -1.4154 -0.3488 -7.5824 -0.0791 -0.1189 -0.0425 2.0360 -0.8646 -0.0673 1.4641 15.8058 -18.8976 25.4034 -5.1737 15.3452
 0.8440 48.5042 -2.1151 -129.4260 -21.3103 -176.0193 -30.6403 2.0048 -18.5362 6.6844 1.7255 -0.5989 -0.7339 -4.4299 2.2036 -1.4906 -0.3283 -7.5865 -0.0987 -0.1190 -0.0425 2.0083 -0.8226 -0.0595 1.5848 15.6155 -18.8042 25.3316 -5.1498 15.3139
